<?xml version="1.0" encoding="utf-8"?>
<!-- Generated by Mocodo 4.1.1 -->
<svg width="516" height="120" viewBox="0 0 516 120" xmlns="http://www.w3.org/2000/svg">
<rect x="0" y="0" width="516" height="120" fill="#f7f7f7" stroke="none" stroke-width="0"/>

<!-- Association COMPOSER -->
<g>
	<line x1="45" y1="60" x2="150" y2="60" stroke="#d6604d" stroke-width="2"/>
	<line x1="258" y1="60" x2="150" y2="60" stroke="#d6604d" stroke-width="2"/>
	<g>
		<path d="M173 35 a14 14 90 0 1 14 14 V60 h-74 V49 a14 14 90 0 1 14 -14" fill="#f4a582" stroke="#f4a582" stroke-width="0"/>
		<path d="M187 60 v11 a14 14 90 0 1 -14 14 H127 a14 14 90 0 1 -14 -14 V60 H74" fill="#fddbc7" stroke="#fddbc7" stroke-width="0"/>
		<rect x="113" y="35" width="74" height="50" fill="none" rx="14" stroke="#d6604d" stroke-width="2"/>
		<line x1="113" y1="60" x2="187" y2="60" stroke="#d6604d" stroke-width="1"/>
		<text x="121" y="52.75" fill="#000000" font-family="Verdana" font-size="12">composer</text>
	</g>
	<text x="86" y="77" fill="#2166ac" font-family="Verdana" font-size="12">0,N</text>
	<text x="193" y="77" fill="#2166ac" font-family="Verdana" font-size="12">1,1</text>
</g>

<!-- Association POSSEDER -->
<g>
	<line x1="258" y1="60" x2="364" y2="60" stroke="#d6604d" stroke-width="2"/>
	<line x1="469" y1="60" x2="364" y2="60" stroke="#d6604d" stroke-width="2"/>
	<g>
		<path d="M385 35 a14 14 90 0 1 14 14 V60 h-70 V49 a14 14 90 0 1 14 -14" fill="#f4a582" stroke="#f4a582" stroke-width="0"/>
		<path d="M399 60 v11 a14 14 90 0 1 -14 14 H343 a14 14 90 0 1 -14 -14 V60 H70" fill="#fddbc7" stroke="#fddbc7" stroke-width="0"/>
		<rect x="329" y="35" width="70" height="50" fill="none" rx="14" stroke="#d6604d" stroke-width="2"/>
		<line x1="329" y1="60" x2="399" y2="60" stroke="#d6604d" stroke-width="1"/>
		<text x="337" y="52.75" fill="#000000" font-family="Verdana" font-size="12">posséder</text>
	</g>
	<text x="302" y="77" fill="#2166ac" font-family="Verdana" font-size="12">0,N</text>
	<text x="404" y="77" fill="#2166ac" font-family="Verdana" font-size="12">0,N</text>
</g>

<!-- Entity LISTE -->
<g>
	<g>
		<rect x="9" y="18" width="72" height="25" fill="#92c5de" stroke="none" stroke-width="0" opacity="1"/>
		<rect x="9" y="43" width="72" height="59" fill="#d1e5f0" stroke="none" stroke-width="0" opacity="1"/>
		<rect x="9" y="18" width="72" height="84" fill="none" stroke="#4393c3" stroke-width="2" opacity="1"/>
		<line x1="9" y1="43" x2="81" y2="43" stroke="#4393c3" stroke-width="1"/>
	</g>
	<text x="27" y="35.75" fill="#000000" font-family="Verdana" font-size="12">LISTE</text>
	<text x="14" y="60.8" fill="#000000" font-family="Verdana" font-size="12">code_liste</text>
	<line x1="14" y1="63" x2="76" y2="63" stroke="#000000" stroke-width="1"/>
	<text x="14" y="77.8" fill="#000000" font-family="Verdana" font-size="12">nom</text>
	<text x="14" y="94.8" fill="#000000" font-family="Verdana" font-size="12">ordre</text>
</g>

<!-- Entity CARTE -->
<g>
	<g>
		<rect x="219" y="9" width="78" height="25" fill="#92c5de" stroke="none" stroke-width="0" opacity="1"/>
		<rect x="219" y="34" width="78" height="77" fill="#d1e5f0" stroke="none" stroke-width="0" opacity="1"/>
		<rect x="219" y="9" width="78" height="102" fill="none" stroke="#4393c3" stroke-width="2" opacity="1"/>
		<line x1="219" y1="34" x2="297" y2="34" stroke="#4393c3" stroke-width="1"/>
	</g>
	<text x="238" y="26.75" fill="#000000" font-family="Verdana" font-size="12">CARTE</text>
	<text x="224" y="51.8" fill="#000000" font-family="Verdana" font-size="12">code_carte</text>
	<line x1="224" y1="54" x2="291" y2="54" stroke="#000000" stroke-width="1"/>
	<text x="224" y="68.8" fill="#000000" font-family="Verdana" font-size="12">contenu</text>
	<text x="224" y="85.8" fill="#000000" font-family="Verdana" font-size="12">couleur</text>
	<text x="224" y="102.8" fill="#000000" font-family="Verdana" font-size="12">ordre</text>
</g>

<!-- Entity LABEL -->
<g>
	<g>
		<rect x="431" y="18" width="76" height="25" fill="#92c5de" stroke="none" stroke-width="0" opacity="1"/>
		<rect x="431" y="43" width="76" height="59" fill="#d1e5f0" stroke="none" stroke-width="0" opacity="1"/>
		<rect x="431" y="18" width="76" height="84" fill="none" stroke="#4393c3" stroke-width="2" opacity="1"/>
		<line x1="431" y1="43" x2="507" y2="43" stroke="#4393c3" stroke-width="1"/>
	</g>
	<text x="450" y="35.75" fill="#000000" font-family="Verdana" font-size="12">LABEL</text>
	<text x="436" y="60.8" fill="#000000" font-family="Verdana" font-size="12">code_label</text>
	<line x1="436" y1="63" x2="501" y2="63" stroke="#000000" stroke-width="1"/>
	<text x="436" y="77.8" fill="#000000" font-family="Verdana" font-size="12">nom</text>
	<text x="436" y="94.8" fill="#000000" font-family="Verdana" font-size="12">couleur</text>
</g>
</svg>